<svg width="24" height="24" viewBox="0 0 24 24" fill="none" xmlns="http://www.w3.org/2000/svg">
<path fill-rule="evenodd" clip-rule="evenodd" d="M13.2239 12.3362C12.3143 12.1121 11.2406 12 10.0028 12C5.33427 12 3 13.5941 3 16.7822V18C3 18.5523 3.4479 19 4.0004 19L11.3417 19.0007C11.1204 18.3749 11 17.7015 11 17C11 15.1177 11.8668 13.4378 13.2239 12.3362ZM14 7C14 4.79086 12.2091 3 10 3C7.79086 3 6 4.79086 6 7C6 9.20914 7.79086 11 10 11C12.2091 11 14 9.20914 14 7ZM20.073 16.728C20.0813 16.82 20.0854 16.908 20.0854 17C20.0854 17.092 20.0813 17.18 20.0689 17.272L20.8341 17.836C20.9986 17.96 21.0439 18.18 20.941 18.356L20.1718 19.648C20.0689 19.824 19.8468 19.896 19.6575 19.816L18.7731 19.452C18.6208 19.556 18.4604 19.648 18.2917 19.724L18.1724 20.648C18.1478 20.848 17.9709 21 17.7652 21H16.2307C16.025 21 15.8481 20.848 15.8234 20.648L15.7041 19.724C15.5355 19.648 15.375 19.556 15.2228 19.452L14.3384 19.816C14.1491 19.896 13.927 19.824 13.8241 19.648L13.0548 18.356C12.952 18.18 12.9972 17.956 13.1618 17.836L13.927 17.272C13.9187 17.18 13.9146 17.092 13.9146 17C13.9146 16.908 13.9187 16.82 13.927 16.732L13.1618 16.168C12.9972 16.044 12.952 15.824 13.0548 15.648L13.8241 14.352C13.927 14.176 14.1491 14.104 14.3384 14.184L15.2228 14.548C15.375 14.444 15.5355 14.352 15.7041 14.276L15.8234 13.352C15.8481 13.152 16.025 13 16.2348 13H17.7693C17.975 13 18.1519 13.152 18.1766 13.352L18.2959 14.276C18.4645 14.352 18.625 14.444 18.7772 14.548L19.6616 14.184C19.8509 14.104 20.073 14.176 20.1759 14.352L20.9452 15.644C21.048 15.82 21.0028 16.044 20.8382 16.164L20.073 16.728ZM15.5766 17C15.5766 17.772 16.2225 18.4 17.0165 18.4C17.8104 18.4 18.4563 17.772 18.4563 17C18.4563 16.228 17.8104 15.6 17.0165 15.6C16.2225 15.6 15.5766 16.228 15.5766 17Z" fill="white"/>
</svg>
