<svg width="13" height="15" viewBox="0 0 13 15" fill="none" xmlns="http://www.w3.org/2000/svg">
<path d="M12.1534 10.3204C11.242 9.58676 10.7194 8.51439 10.7194 7.3783V5.77778C10.7194 3.75761 9.14373 2.08534 7.10272 1.80519V1.18519C7.10272 0.867726 6.83268 0.611115 6.49995 0.611115C6.16721 0.611115 5.89717 0.867726 5.89717 1.18519V1.80519C3.85556 2.08534 2.2805 3.75761 2.2805 5.77778V7.3783C2.2805 8.51439 1.75789 9.58676 0.841068 10.325C0.606587 10.5162 0.472168 10.794 0.472168 11.088C0.472168 11.6419 0.945349 12.0926 1.52703 12.0926H11.4729C12.0545 12.0926 12.5277 11.6419 12.5277 11.088C12.5277 10.794 12.3933 10.5162 12.1534 10.3204Z" fill="#5A606C"/>
<path d="M6.50001 14.3889C7.59164 14.3889 8.50484 13.6477 8.71461 12.6667H4.2854C4.49517 13.6477 5.40838 14.3889 6.50001 14.3889Z" fill="#5A606C"/>
</svg>
