<svg width="24" height="24" viewBox="0 0 24 24" fill="none" xmlns="http://www.w3.org/2000/svg">
<path fill-rule="evenodd" clip-rule="evenodd" d="M16.6469 2.2253C16.9473 2.52571 16.9473 3.01276 16.6469 3.31316L12.5443 7.41572C12.2439 7.71613 11.7569 7.71613 11.4565 7.41572L8.3796 4.3388C8.0792 4.0384 8.0792 3.55135 8.3796 3.25094C8.68 2.95054 9.16705 2.95054 9.46746 3.25094L12.0004 5.78394L15.559 2.2253C15.8594 1.9249 16.3465 1.9249 16.6469 2.2253Z" fill="white"/>
<path fill-rule="evenodd" clip-rule="evenodd" d="M16.6472 11.4563C16.9476 11.7567 16.9476 12.2437 16.6472 12.5441L13.5703 15.6211C13.2699 15.9215 12.7828 15.9215 12.4824 15.6211L10.9751 14.1137L8.44206 16.6467C8.14166 16.9471 7.65461 16.9471 7.35421 16.6467C7.0538 16.3463 7.0538 15.8592 7.35421 15.5588L10.4311 12.4819C10.7315 12.1815 11.2186 12.1815 11.519 12.4819L13.0263 13.9893L15.5593 11.4563C15.8597 11.1559 16.3468 11.1559 16.6472 11.4563Z" fill="white"/>
<path fill-rule="evenodd" clip-rule="evenodd" d="M12 7.64101C9.81513 7.64101 6.82571 7.82727 4.97715 7.95988C4.37672 8.00295 3.9021 8.46547 3.84447 9.0589C3.70564 10.4883 3.53846 12.5306 3.53846 14.0513C3.53846 15.572 3.70564 17.6143 3.84447 19.0436C3.9021 19.6371 4.37672 20.0996 4.97715 20.1427C6.82571 20.2753 9.81513 20.4615 12 20.4615C14.1849 20.4615 17.1743 20.2753 19.0229 20.1427C19.6233 20.0996 20.0979 19.6371 20.1555 19.0436C20.2944 17.6143 20.4615 15.572 20.4615 14.0513C20.4615 12.5306 20.2944 10.4883 20.1555 9.0589C20.0979 8.46547 19.6233 8.00295 19.0229 7.95988C17.1743 7.82727 14.1849 7.64101 12 7.64101ZM4.86707 6.42536C6.71631 6.2927 9.75455 6.10254 12 6.10254C14.2455 6.10254 17.2837 6.2927 19.1329 6.42536C20.4758 6.52169 21.5561 7.5644 21.6868 8.91017C21.826 10.3433 22 12.4499 22 14.0513C22 15.6527 21.826 17.7593 21.6868 19.1924C21.5561 20.5381 20.4758 21.5809 19.1329 21.6772C17.2837 21.8098 14.2454 22 12 22C9.75455 22 6.7163 21.8098 4.86707 21.6772C3.52416 21.5809 2.44392 20.5381 2.31321 19.1924C2.17402 17.7593 2 15.6527 2 14.0513C2 12.4499 2.17402 10.3433 2.31321 8.91017C2.44392 7.5644 3.52416 6.52169 4.86707 6.42536Z" fill="white"/>
</svg>
