<svg width="18" height="18" viewBox="0 0 18 18" fill="none" xmlns="http://www.w3.org/2000/svg">
<path d="M15.577 16.9615L1.03862 2.42308C0.465072 1.84953 0.310123 1.07465 0.692461 0.692307C1.0748 0.309967 1.84968 0.464917 2.42323 1.03847L16.9616 15.5769C17.5351 16.1504 17.6901 16.9253 17.3078 17.3077C16.9254 17.69 16.1505 17.535 15.577 16.9615Z" fill="#5A606C"/>
<path d="M16.9614 2.4231L2.42307 16.9615C1.84952 17.5351 1.07467 17.69 0.692304 17.3077C0.309942 16.9253 0.464915 16.1504 1.03846 15.5769L15.5768 1.03845C16.1504 0.464935 16.9252 0.309926 17.3076 0.692291C17.69 1.07465 17.535 1.84955 16.9614 2.4231Z" fill="#5A606C"/>
</svg>
