<svg width="25" height="24" viewBox="0 0 25 24" fill="none" xmlns="http://www.w3.org/2000/svg">
<path fill-rule="evenodd" clip-rule="evenodd" d="M5 6C5.55229 6 6 6.44772 6 7V17C6 17.5523 5.55229 18 5 18C4.44771 18 4 17.5523 4 17V7C4 6.44772 4.44771 6 5 6ZM8.23178 12.6402L12.2136 17.622C12.5671 18.0463 13.1977 18.1036 13.622 17.7501C14.0463 17.3965 14.1036 16.7659 13.75 16.3416L11.135 13H19C19.5523 13 20 12.5523 20 12C20 11.4477 19.5523 11 19 11H11.135L13.75 7.6584C14.1036 7.23412 14.0463 6.60356 13.622 6.24999C13.1977 5.89643 12.5671 5.95375 12.2136 6.37803L8.23178 11.3598C7.92274 11.7307 7.92274 12.2694 8.23178 12.6402Z" fill="white"/>
</svg>
