<svg width="24" height="24" viewBox="0 0 24 24" fill="none" xmlns="http://www.w3.org/2000/svg">
<path d="M14.6174 6.55379C15.0079 6.16326 15.641 6.16326 16.0316 6.55379L17.4458 7.968C17.8363 8.35852 17.8363 8.99169 17.4458 9.38221L11.2487 15.5792C11.139 15.689 11.0051 15.7717 10.8579 15.8208L7.78786 16.8442C7.39699 16.9745 7.02512 16.6026 7.15541 16.2117L8.17874 13.1417C8.22784 12.9944 8.31055 12.8606 8.42032 12.7508L14.6174 6.55379Z" fill="white"/>
<path d="M17.607 3.56418C18.388 2.78313 19.6544 2.78313 20.4354 3.56418L-nan -nanL20.4354 3.56418C21.2165 4.34523 21.2165 5.61156 20.4354 6.39261L19.7283 7.09971C19.3378 7.49024 18.7046 7.49024 18.3141 7.09971L16.8999 5.6855C16.5094 5.29498 16.5094 4.66181 16.8999 4.27129L17.607 3.56418Z" fill="white"/>
<path d="M14.0104 3.85355C14.3254 3.53857 14.1023 3 13.6568 3H5C3.89543 3 3 3.89543 3 5V19C3 20.1046 3.89543 21 5 21H19C20.1046 21 21 20.1046 21 19V10.799C21 10.3535 20.4614 10.1304 20.1464 10.4454L19.2929 11.299C19.1054 11.4865 19 11.7409 19 12.0061V18C19 18.5523 18.5523 19 18 19H6C5.44772 19 5 18.5523 5 18V6C5 5.44772 5.44772 5 6 5H12.4497C12.715 5 12.9693 4.89464 13.1568 4.70711L14.0104 3.85355Z" fill="white"/>
</svg>
