<svg width="24" height="24" viewBox="0 0 24 24" fill="none" xmlns="http://www.w3.org/2000/svg">
<path fill-rule="evenodd" clip-rule="evenodd" d="M11.5 8C11.5 9.933 9.933 11.5 8 11.5C6.067 11.5 4.5 9.933 4.5 8C4.5 6.067 6.067 4.5 8 4.5C9.933 4.5 11.5 6.067 11.5 8ZM4.5 13.5C4.5 12.9477 4.94772 12.5 5.5 12.5H10.5C11.0523 12.5 11.5 12.9477 11.5 13.5V18.5C11.5 19.0523 11.0523 19.5 10.5 19.5H5.5C4.94772 19.5 4.5 19.0523 4.5 18.5V13.5ZM13.5 4.5C12.9477 4.5 12.5 4.94772 12.5 5.5V18.5C12.5 19.0523 12.9477 19.5 13.5 19.5H18.5C19.0523 19.5 19.5 19.0523 19.5 18.5V5.5C19.5 4.94772 19.0523 4.5 18.5 4.5H13.5Z" fill="white"/>
</svg>
