<svg width="24" height="24" viewBox="0 0 24 24" fill="none" xmlns="http://www.w3.org/2000/svg">
<path fill-rule="evenodd" clip-rule="evenodd" d="M2.6407 7.31454C2.73779 6.00938 3.82505 5 5.13381 5H18.8664C20.1751 5 21.2624 6.00938 21.3595 7.31454L21.9946 15.8516C22.0808 17.0114 21.1631 18 20.0001 18H15.8837C15.9587 18.1853 16 18.3878 16 18.6C16 18.8209 15.8209 19 15.6 19H7.4C7.17909 19 7 18.8209 7 18.6C7 18.3878 7.0413 18.1853 7.1163 18H4.00011C2.83709 18 1.91934 17.0114 2.00562 15.8516L2.6407 7.31454ZM4.67058 7.9495C4.69748 7.41752 5.13665 7 5.6693 7H18.3309C18.8635 7 19.3027 7.41752 19.3296 7.9495L19.6836 14.9495C19.7125 15.5209 19.257 16 18.6849 16H5.31534C4.74322 16 4.28772 15.5209 4.31662 14.9495L4.67058 7.9495Z" fill="white"/>
</svg>
