<svg width="24" height="24" viewBox="0 0 24 24" fill="none" xmlns="http://www.w3.org/2000/svg">
<path fill-rule="evenodd" clip-rule="evenodd" d="M17 4C17 3.44772 16.5523 3 16 3C15.4477 3 15 3.44772 15 4V5H9V4C9 3.44772 8.55228 3 8 3C7.44772 3 7 3.44772 7 4V5H5C3.89543 5 3 5.89543 3 7V19C3 20.1046 3.89543 21 5 21H19C20.1046 21 21 20.1046 21 19V7C21 5.89543 20.1046 5 19 5H17V4ZM6 9H18C18.5523 9 19 9.44772 19 10V18L18.9933 18.1166C18.9355 18.614 18.5128 19 18 19H6L5.88338 18.9933C5.38604 18.9355 5 18.5128 5 18V10L5.00673 9.88338C5.06449 9.38604 5.48716 9 6 9ZM15 17C16.1046 17 17 16.1046 17 15C17 13.8954 16.1046 13 15 13C13.8954 13 13 13.8954 13 15C13 16.1046 13.8954 17 15 17Z" fill="white"/>
</svg>
