<svg width="24" height="24" viewBox="0 0 24 24" fill="none" xmlns="http://www.w3.org/2000/svg">
<path fill-rule="evenodd" clip-rule="evenodd" d="M13 8C13 10.2091 11.2091 12 9 12C6.79086 12 5 10.2091 5 8C5 5.79086 6.79086 4 9 4C11.2091 4 13 5.79086 13 8ZM15.9771 19.0723C16.0226 19.5949 15.5935 20 15.0689 20H2.93114C2.4065 20 1.97748 19.5949 2.02297 19.0723C2.18862 17.169 3.21207 13 9.00002 13C14.788 13 15.8114 17.169 15.9771 19.0723ZM14.903 13.9954C16.926 15.8564 17.3844 18.556 17.478 20H21.0599C21.5848 20 22.0142 19.5925 21.9601 19.0704C21.7839 17.3704 20.8286 13.9333 15.9823 13.9333C15.5987 13.9333 15.2394 13.9549 14.903 13.9954ZM12.767 11.288C13.5348 10.409 14 9.25883 14 8C14 7.51526 13.931 7.04663 13.8024 6.6034C14.3579 6.22256 15.0286 6 15.751 6C17.6676 6 19.2213 7.567 19.2213 9.5C19.2213 11.433 17.6676 13 15.751 13C14.482 13 13.3722 12.3132 12.767 11.288Z" fill="white"/>
</svg>
