<svg width="24" height="24" viewBox="0 0 24 24" fill="none" xmlns="http://www.w3.org/2000/svg">
<path fill-rule="evenodd" clip-rule="evenodd" d="M12 22C17.5228 22 22 17.5228 22 12C22 6.47715 17.5228 2 12 2C6.47715 2 2 6.47715 2 12C2 17.5228 6.47715 22 12 22ZM11 9.5C11 8.94771 11.4477 8.5 12 8.5C12.5523 8.5 13 8.94771 13 9.5C13 10.0603 12.7824 10.3034 12.2929 10.7929L12.2667 10.8191C11.7561 11.3292 11 12.0847 11 13.5C11 14.0523 11.4477 14.5 12 14.5C12.5523 14.5 13 14.0523 13 13.5C13 12.9397 13.2176 12.6966 13.7071 12.2071L13.7333 12.1809C14.2439 11.6708 15 10.9153 15 9.5C15 7.84315 13.6569 6.5 12 6.5C10.3431 6.5 9 7.84315 9 9.5C9 10.0523 9.44771 10.5 10 10.5C10.5523 10.5 11 10.0523 11 9.5ZM12 17.5C12.5523 17.5 13 17.0523 13 16.5C13 15.9477 12.5523 15.5 12 15.5C11.4477 15.5 11 15.9477 11 16.5C11 17.0523 11.4477 17.5 12 17.5Z" fill="#75ADE4"/>
</svg>
