<svg width="486" height="486" viewBox="0 0 486 486" fill="none" xmlns="http://www.w3.org/2000/svg">
<g clip-path="url(#clip0_209_20)">
<path d="M361.205 68.8989C346.542 68.8989 332.758 74.6089 322.389 84.9769C300.987 106.38 300.987 141.205 322.389 162.608C332.757 172.976 346.542 178.686 361.204 178.686C375.866 178.686 389.651 172.976 400.02 162.608C421.422 141.205 421.422 106.38 400.02 84.9769C389.652 74.6089 375.867 68.8989 361.205 68.8989ZM378.807 141.394C374.105 146.096 367.854 148.686 361.204 148.686C354.554 148.686 348.303 146.096 343.601 141.395C333.895 131.689 333.895 115.896 343.601 106.19C348.303 101.488 354.554 98.8989 361.204 98.8989C367.854 98.8989 374.104 101.488 378.807 106.19C388.513 115.896 388.513 131.688 378.807 141.394Z" fill="white"/>
<path d="M441.962 43.036C414.211 15.284 377.312 0 338.065 0C298.817 0 261.919 15.284 234.168 43.036C191.942 85.262 179.677 148.215 202.103 202.734L0.254844 404.584L0.0898438 484.852L144.652 485.017V429.295H200.357V373.59H256.062V309.098L282.274 282.886C299.889 290.089 318.972 293.862 338.073 293.862C377.317 293.862 414.213 278.58 441.962 250.83C499.251 193.541 499.251 100.325 441.962 43.036ZM420.749 229.617C398.666 251.7 369.304 263.862 338.073 263.862C319.94 263.862 301.836 259.597 285.72 251.529L276.048 246.687L226.062 296.672V343.59H170.357V399.295H114.652V454.983L30.1518 454.887L30.2298 417.037L238.312 208.95L233.47 199.278C210.898 154.191 219.703 99.927 255.381 64.249C277.467 42.163 306.831 30 338.065 30C369.299 30 398.663 42.163 420.749 64.249C466.341 109.841 466.341 184.025 420.749 229.617Z" fill="white"/>
</g>
<defs>
<clipPath id="clip0_209_20">
<rect width="485.017" height="485.017" fill="white"/>
</clipPath>
</defs>
</svg>
