<svg width="24" height="24" viewBox="0 0 24 24" fill="none" xmlns="http://www.w3.org/2000/svg">
<path d="M19.2973 4.70504C18.1974 3.60553 16.7353 3 15.1802 3C13.625 3 12.1628 3.60553 11.0632 4.70504C9.96333 5.8046 9.35765 7.26658 9.35765 8.82162C9.35765 9.62107 9.51888 10.3955 9.82387 11.1091L3.40874 17.5233C3.29222 17.6397 3.22045 17.7933 3.20586 17.9572L3.0028 20.2358C2.98426 20.443 3.05851 20.6475 3.20553 20.7945C3.35255 20.9415 3.55708 21.0157 3.76429 20.9972L6.04328 20.7942C6.20719 20.7796 6.36077 20.7079 6.47728 20.5913L7.1683 19.9003C7.16359 19.8811 7.16021 19.8615 7.1588 19.8412L7.04552 18.1899C7.03884 18.0921 7.07476 17.9961 7.14415 17.9267C7.21348 17.8574 7.30882 17.822 7.4073 17.8281L9.05893 17.9413C9.07926 17.9426 9.099 17.946 9.11815 17.9508L9.66052 17.4085C9.65576 17.3893 9.65237 17.3696 9.65096 17.3493L9.53768 15.698C9.531 15.6002 9.56698 15.5042 9.63631 15.4348C9.70565 15.3654 9.80148 15.3297 9.89956 15.3362L11.5512 15.4495C11.5714 15.4508 11.5912 15.4542 11.6104 15.459L12.8927 14.1768C13.6065 14.4817 14.381 14.6429 15.1805 14.6429C16.7357 14.6429 18.1978 14.0373 19.2976 12.9379C21.5675 10.6684 21.5675 6.97505 19.2973 4.70504ZM16.8755 10.5168C16.4227 10.9695 15.8207 11.2188 15.1802 11.2188C14.5398 11.2188 13.9378 10.9694 13.485 10.5166C13.0321 10.0639 12.7827 9.46189 12.7827 8.82159C12.7827 8.18124 13.0321 7.57929 13.485 7.12655C13.9377 6.67382 14.5398 6.42452 15.1802 6.42452C15.8206 6.42452 16.4226 6.67384 16.8754 7.12655C17.8103 8.06126 17.8103 9.58218 16.8755 10.5168Z" fill="white"/>
</svg>
