<svg width="92" height="25" viewBox="0 0 92 25" fill="none" xmlns="http://www.w3.org/2000/svg">
<path d="M0.693115 12.469C0.693115 9.15696 1.73009 6.37798 3.80403 4.13204C5.87797 1.87574 8.52972 0.747589 11.7593 0.747589C14.3182 0.747589 16.8874 1.17194 19.4669 2.02064L19.049 3.29369C16.4901 2.52779 14.0602 2.14484 11.7593 2.14484C8.99403 2.14484 6.73437 3.14361 4.98029 5.14116C3.22621 7.13871 2.34917 9.58131 2.34917 12.469C2.34917 15.3566 3.33971 17.8095 5.32079 19.8278C7.29155 21.8357 9.71114 22.8396 12.5796 22.8396C15.0662 22.8396 17.1092 22.5033 18.7085 21.8305V12.4845H20.2253V22.5291C18.3887 23.678 15.8143 24.2524 12.5022 24.2524C9.2004 24.2524 6.40935 23.1087 4.12905 20.8214C1.83843 18.5237 0.693115 15.7396 0.693115 12.469Z" fill="#051E2A"/>
<path d="M25.1911 23.9214V1.07864H35.7585V2.4205H26.7296V10.8149H34.9038V12.1255H26.7296V22.5795H36.1159V23.9214H25.1911Z" fill="#051E2A"/>
<path d="M43.8462 1.07864L40.0885 23.9214H41.6413L44.2499 6.78546L44.576 4.37282C44.8555 5.17703 45.1608 5.96062 45.4921 6.7236L52.1379 22.746H53.0074L60.5072 6.75453C60.6314 6.45552 60.8177 6.02764 61.0662 5.47088C61.1076 5.37809 61.2318 5.08424 61.4388 4.58934C61.5113 4.41406 61.563 4.31096 61.5941 4.28003C61.5941 4.85741 61.6769 5.67193 61.8425 6.7236L64.3269 23.9214H65.9107L62.4481 1.07864H61.5941L53.6751 17.9052C53.0643 19.1734 52.7331 19.9003 52.6813 20.0859C52.4639 19.3848 52.1793 18.6476 51.8273 17.8743L44.7312 1.07864H43.8462Z" fill="#051E2A"/>
<path d="M69.8834 22.4981L70.6504 21.3492C72.1843 22.3428 73.8696 22.8396 75.7062 22.8396C77.5532 22.8396 78.9671 22.4774 79.9481 21.7529C80.929 21.0284 81.4194 19.9727 81.4194 18.5858C81.4194 17.6336 81.0646 16.728 80.355 15.8689C79.6141 14.9685 78.7637 14.1922 77.8036 13.5402C76.8958 12.9192 75.8888 12.2154 74.7827 11.4288C73.7809 10.7146 72.9252 9.85558 72.2156 8.85163C71.5165 7.86838 71.1669 6.79716 71.1669 5.63796C71.1669 4.13721 71.7252 2.94696 72.8417 2.06721C73.9583 1.18746 75.4766 0.747589 77.3967 0.747589C79.2959 0.747589 81.075 1.13054 82.7342 1.89644L82.1864 3.13844C80.6002 2.47604 79.0506 2.14484 77.5375 2.14484C74.4174 2.14484 72.8574 3.28851 72.8574 5.57586C72.8574 6.57981 73.2122 7.51131 73.9218 8.37036C74.6209 9.21906 75.4766 9.97978 76.4888 10.6525C77.4906 11.3253 78.4923 12.0084 79.4941 12.7018C80.5063 13.4056 81.362 14.244 82.0612 15.2169C82.7708 16.2001 83.1255 17.261 83.1255 18.3995C83.1255 20.3246 82.4734 21.7788 81.169 22.762C79.8541 23.7556 78.0541 24.2524 75.7688 24.2524C73.4835 24.2524 71.5217 23.6676 69.8834 22.4981Z" fill="#051E2A"/>
<path fill-rule="evenodd" clip-rule="evenodd" d="M87.5702 1.96964V5.43407H87.8884V4.02968C88.2272 4.05037 88.4845 4.06071 88.6604 4.06071L89.3897 5.10819C89.4777 5.24009 89.5669 5.32544 89.6574 5.36424C89.7402 5.40045 89.8786 5.41855 90.0725 5.41855V5.18966C89.8915 5.1638 89.7415 5.0681 89.6225 4.90257L89.0018 4.02968C89.1544 3.94433 89.307 3.80079 89.4596 3.59905C89.6096 3.3999 89.6846 3.16066 89.6846 2.88134C89.6846 2.60201 89.5798 2.377 89.3703 2.2063C89.1583 2.03301 88.8893 1.94637 88.5634 1.94637C88.4263 1.94637 88.0953 1.95413 87.5702 1.96964ZM88.738 3.80079C88.4871 3.80079 88.2039 3.79173 87.8884 3.77363V2.24121C87.9789 2.23087 88.1741 2.22569 88.4742 2.22569C88.7638 2.22569 88.9837 2.28518 89.1337 2.40415C89.2837 2.52312 89.3587 2.6977 89.3587 2.92789C89.3587 3.15808 89.2889 3.3611 89.1492 3.53698C89.0095 3.71285 88.8725 3.80079 88.738 3.80079Z" fill="#051E2A"/>
<path fill-rule="evenodd" clip-rule="evenodd" d="M86.5654 1.59333C86.0378 2.15457 85.774 2.8503 85.774 3.68052C85.774 4.50557 86.0378 5.2013 86.5654 5.76771C87.0956 6.33671 87.7616 6.62121 88.5634 6.62121C89.3652 6.62121 90.0324 6.33671 90.5652 5.76771C91.0954 5.20389 91.3605 4.50815 91.3605 3.68052C91.3605 2.8503 91.0954 2.15457 90.5652 1.59333C90.0324 1.0295 89.3652 0.747589 88.5634 0.747589C87.759 0.747589 87.093 1.0295 86.5654 1.59333ZM86.0999 3.67664C86.0999 2.9266 86.3288 2.3007 86.7866 1.79894C87.2443 1.29978 87.8379 1.05019 88.5673 1.05019C89.2966 1.05019 89.8902 1.29978 90.348 1.79894C90.8058 2.3007 91.0347 2.9266 91.0347 3.67664C91.0347 4.42927 90.8045 5.05646 90.3441 5.55822C89.8811 6.06514 89.2876 6.31861 88.5634 6.31861C87.8392 6.31861 87.2469 6.06514 86.7866 5.55822C86.3288 5.05388 86.0999 4.42668 86.0999 3.67664Z" fill="#051E2A"/>
</svg>
