<svg width="26" height="31" viewBox="0 0 26 31" fill="none" xmlns="http://www.w3.org/2000/svg">
<path d="M0 7.57105L12.8966 0L25.7931 7.57105V22.4427L12.8966 30.0138L0 22.4427V7.57105Z" fill="url(#paint0_linear_1470_58263)"/>
<path opacity="0.2" d="M12.8799 22.4427L12.8799 30.0138L25.7601 22.4427L19.32 18.6572L12.8799 22.4427Z" fill="white"/>
<path opacity="0.2" d="M6.44009 11.3566L0 7.57104V22.4427L6.44009 18.6572V11.3566Z" fill="white"/>
<path opacity="0.4" d="M6.43994 11.3566L12.88 7.57104L19.3201 11.3566V18.6572L12.88 22.4427L6.43994 18.6572V11.3566Z" fill="white"/>
<path opacity="0.6" d="M19.3203 11.3566L25.7604 7.57104V22.4427L19.3203 18.6572V11.3566Z" fill="white"/>
<path opacity="0.6" d="M6.4401 11.3566L0 7.57105L12.8802 0L12.8802 7.57104L6.4401 11.3566Z" fill="white"/>
<path opacity="0.8" d="M12.8799 7.57105L12.8799 0L25.7601 7.57105L19.32 11.3566L12.8799 7.57105Z" fill="white"/>
<g opacity="0.2">
<mask id="mask0_1470_58263" style="mask-type:alpha" maskUnits="userSpaceOnUse" x="6" y="7" width="14" height="16">
<path d="M6.43994 11.3566L12.88 7.57104L19.3201 11.3566V18.6572L12.88 22.4427L6.43994 18.6572V11.3566Z" fill="black"/>
</mask>
<g mask="url(#mask0_1470_58263)">
<rect width="16.2856" height="1.34016" transform="matrix(0.715683 -0.698426 0.692942 0.720993 5.7915 20.0203)" fill="white"/>
<rect width="16.2856" height="2.97171" transform="matrix(0.715683 -0.698426 0.692942 0.720993 7.78174 21.3789)" fill="white"/>
</g>
</g>
<g opacity="0.3">
<mask id="mask1_1470_58263" style="mask-type:alpha" maskUnits="userSpaceOnUse" x="19" y="7" width="7" height="16">
<path d="M19.3203 11.3566L25.7604 7.57104V22.4427L19.3203 18.6572V11.3566Z" fill="black"/>
</mask>
<g mask="url(#mask1_1470_58263)">
<rect width="16.2856" height="3.45161" transform="matrix(0.715683 -0.698426 0.692942 0.720993 19.0518 21.9197)" fill="white"/>
</g>
</g>
<defs>
<linearGradient id="paint0_linear_1470_58263" x1="19.4393" y1="3.8351" x2="6.39174" y2="25.7693" gradientUnits="userSpaceOnUse">
<stop stop-color="#EFEFEF"/>
<stop offset="1" stop-color="#B4B4B4"/>
</linearGradient>
</defs>
</svg>
