<svg width="146" height="40" viewBox="0 0 146 40" fill="none" xmlns="http://www.w3.org/2000/svg">
<path d="M0 9.86889L16.8107 0L33.6214 9.86889V29.2542L16.8107 39.1231L0 29.2542V9.86889Z" fill="url(#paint0_linear_1470_57048)"/>
<path opacity="0.2" d="M16.7896 29.2542L16.7896 39.1231L33.5789 29.2542L25.1842 24.3198L16.7896 29.2542Z" fill="white"/>
<path opacity="0.2" d="M8.39469 14.8033L0 9.8689V29.2542L8.39469 24.3198V14.8033Z" fill="white"/>
<path opacity="0.4" d="M8.39502 14.8033L16.7897 9.8689L25.1844 14.8033V24.3198L16.7897 29.2542L8.39502 24.3198V14.8033Z" fill="white"/>
<path opacity="0.6" d="M25.1841 14.8033L33.5788 9.8689V29.2542L25.1841 24.3198V14.8033Z" fill="white"/>
<path opacity="0.6" d="M8.39469 14.8033L0 9.86889L16.7894 0L16.7894 9.86887L8.39469 14.8033Z" fill="white"/>
<path opacity="0.8" d="M16.7896 9.86889L16.7896 0L33.5789 9.86889L25.1842 14.8033L16.7896 9.86889Z" fill="white"/>
<g opacity="0.2">
<mask id="mask0_1470_57048" style="mask-type:alpha" maskUnits="userSpaceOnUse" x="8" y="9" width="18" height="21">
<path d="M8.39453 14.8033L16.7892 9.8689L25.1839 14.8033V24.3198L16.7892 29.2542L8.39453 24.3198V14.8033Z" fill="black"/>
</mask>
<g mask="url(#mask0_1470_57048)">
<rect width="21.2284" height="1.7469" transform="matrix(0.715683 -0.698426 0.692942 0.720993 7.5498 26.0965)" fill="white"/>
<rect width="21.2284" height="3.87364" transform="matrix(0.715683 -0.698426 0.692942 0.720993 10.1436 27.8675)" fill="white"/>
</g>
</g>
<g opacity="0.3">
<mask id="mask1_1470_57048" style="mask-type:alpha" maskUnits="userSpaceOnUse" x="25" y="9" width="9" height="21">
<path d="M25.1841 14.8033L33.5788 9.8689V29.2542L25.1841 24.3198V14.8033Z" fill="black"/>
</mask>
<g mask="url(#mask1_1470_57048)">
<rect width="21.2284" height="4.49919" transform="matrix(0.715683 -0.698426 0.692942 0.720993 24.8345 28.5724)" fill="white"/>
</g>
</g>
<path d="M40.957 19.5256C40.957 15.6891 42.1582 12.47 44.5606 9.86837C46.963 7.25475 50.0347 5.94794 53.7757 5.94794C56.7399 5.94794 59.7159 6.43949 62.704 7.4226L62.2199 8.89725C59.2558 8.01006 56.4411 7.56646 53.7757 7.56646C50.5725 7.56646 47.955 8.72341 45.9232 11.0373C43.8913 13.3512 42.8754 16.1806 42.8754 19.5256C42.8754 22.8705 44.0228 25.712 46.3176 28.0498C48.6004 30.3757 51.4032 31.5386 54.7259 31.5386C57.6064 31.5386 59.9729 31.149 61.8255 30.3697V19.5436H63.5825V31.179C61.455 32.5098 58.4729 33.1752 54.6363 33.1752C50.8116 33.1752 47.5785 31.8504 44.9371 29.2008C42.2837 26.5392 40.957 23.3141 40.957 19.5256Z" fill="white"/>
<path d="M69.3347 32.7917V6.33142H81.5756V7.88578H71.1168V17.6096H80.5855V19.1278H71.1168V31.2373H81.9896V32.7917H69.3347Z" fill="white"/>
<path d="M90.9441 6.33142L86.5914 32.7917H88.39L91.4118 12.942L91.7895 10.1473C92.1132 11.0789 92.467 11.9865 92.8507 12.8703L100.549 31.4301H101.556L110.244 12.9062C110.388 12.5598 110.603 12.0642 110.891 11.4192C110.939 11.3118 111.083 10.9714 111.323 10.3981C111.407 10.1951 111.467 10.0756 111.503 10.0398C111.503 10.7086 111.599 11.6521 111.791 12.8703L114.668 32.7917H116.503L112.492 6.33142H111.503L102.33 25.8228C101.622 27.2918 101.238 28.1338 101.178 28.3488C100.927 27.5367 100.597 26.6827 100.189 25.787L91.9694 6.33142H90.9441Z" fill="white"/>
<path d="M121.105 31.143L121.993 29.8122C123.77 30.9632 125.722 31.5386 127.85 31.5386C129.989 31.5386 131.627 31.119 132.763 30.2798C133.9 29.4406 134.468 28.2177 134.468 26.6111C134.468 25.5081 134.057 24.4591 133.235 23.464C132.377 22.4209 131.391 21.5218 130.279 20.7665C129.228 20.0471 128.061 19.2318 126.78 18.3207C125.62 17.4934 124.628 16.4983 123.806 15.3354C122.996 14.1964 122.592 12.9556 122.592 11.6128C122.592 9.87436 123.238 8.49562 124.532 7.47655C125.825 6.45747 127.584 5.94794 129.808 5.94794C132.008 5.94794 134.069 6.39153 135.991 7.27873L135.356 8.71742C133.519 7.95011 131.724 7.56646 129.971 7.56646C126.357 7.56646 124.55 8.89126 124.55 11.5408C124.55 12.7038 124.961 13.7828 125.783 14.7779C126.593 15.761 127.584 16.6422 128.756 17.4215C129.917 18.2008 131.077 18.9921 132.238 19.7953C133.41 20.6106 134.401 21.5817 135.211 22.7087C136.033 23.8476 136.444 25.0765 136.444 26.3953C136.444 28.6253 135.689 30.3098 134.178 31.4487C132.655 32.5997 130.569 33.1752 127.922 33.1752C125.275 33.1752 123.003 32.4978 121.105 31.143Z" fill="white"/>
<path fill-rule="evenodd" clip-rule="evenodd" d="M141.593 7.36352V11.3766H141.961V9.7498C142.354 9.77377 142.652 9.78575 142.855 9.78575L143.7 10.9991C143.802 11.1519 143.906 11.2508 144.01 11.2957C144.106 11.3377 144.267 11.3586 144.491 11.3586V11.0935C144.281 11.0635 144.108 10.9527 143.97 10.7609L143.251 9.7498C143.428 9.65094 143.604 9.48466 143.781 9.25098C143.955 9.02029 144.042 8.74316 144.042 8.4196C144.042 8.09604 143.92 7.83539 143.678 7.63765C143.432 7.43693 143.121 7.33656 142.743 7.33656C142.584 7.33656 142.201 7.34555 141.593 7.36352ZM142.945 9.48466C142.655 9.48466 142.327 9.47417 141.961 9.4532V7.6781C142.066 7.66612 142.292 7.66012 142.64 7.66012C142.975 7.66012 143.23 7.72903 143.404 7.86685C143.577 8.00466 143.664 8.20689 143.664 8.47353C143.664 8.74017 143.583 8.97535 143.422 9.17907C143.26 9.3828 143.101 9.48466 142.945 9.48466Z" fill="white"/>
<path fill-rule="evenodd" clip-rule="evenodd" d="M140.429 6.92761C139.818 7.57774 139.512 8.38365 139.512 9.34535C139.512 10.3011 139.818 11.107 140.429 11.7631C141.043 12.4222 141.814 12.7517 142.743 12.7517C143.672 12.7517 144.445 12.4222 145.062 11.7631C145.676 11.11 145.983 10.3041 145.983 9.34535C145.983 8.38365 145.676 7.57774 145.062 6.92761C144.445 6.2745 143.672 5.94794 142.743 5.94794C141.811 5.94794 141.04 6.2745 140.429 6.92761ZM139.889 9.34085C139.889 8.47203 140.155 7.74701 140.685 7.16579C141.215 6.58757 141.903 6.29846 142.748 6.29846C143.592 6.29846 144.28 6.58757 144.81 7.16579C145.341 7.74701 145.606 8.47203 145.606 9.34085C145.606 10.2127 145.339 10.9392 144.806 11.5204C144.27 12.1076 143.582 12.4012 142.743 12.4012C141.904 12.4012 141.218 12.1076 140.685 11.5204C140.155 10.9362 139.889 10.2097 139.889 9.34085Z" fill="white"/>
<defs>
<linearGradient id="paint0_linear_1470_57048" x1="25.3392" y1="4.99906" x2="8.33166" y2="33.5903" gradientUnits="userSpaceOnUse">
<stop stop-color="#EFEFEF"/>
<stop offset="1" stop-color="#B4B4B4"/>
</linearGradient>
</defs>
</svg>
