<svg width="24" height="24" viewBox="0 0 24 24" fill="none" xmlns="http://www.w3.org/2000/svg">
<g clip-path="url(#clip0_1341_31570)">
<path fill-rule="evenodd" clip-rule="evenodd" d="M19.0713 4.92888C19.4618 5.3194 19.4618 5.95257 19.0713 6.34309L13.4151 11.9992L19.0713 17.6568C19.4618 18.0473 19.4618 18.6805 19.0713 19.071C18.6807 19.4615 18.0476 19.4615 17.657 19.071L12.0009 13.4135L6.34334 19.071C5.95281 19.4615 5.31965 19.4615 4.92912 19.071C4.5386 18.6805 4.5386 18.0473 4.92912 17.6568L10.5867 11.9992L4.92912 6.34309C4.5386 5.95257 4.5386 5.3194 4.92912 4.92888C5.31965 4.53836 5.95281 4.53836 6.34334 4.92888L12.0009 10.585L17.657 4.92888C18.0476 4.53836 18.6807 4.53836 19.0713 4.92888Z" fill="black"/>
</g>
<defs>
<clipPath id="clip0_1341_31570">
<rect width="24" height="24" fill="white"/>
</clipPath>
</defs>
</svg>
