<svg width="25" height="25" viewBox="0 0 25 25" fill="none" xmlns="http://www.w3.org/2000/svg">
<path fill-rule="evenodd" clip-rule="evenodd" d="M19.0234 6.37845C18.4707 6.37845 18.0226 6.82651 18.0226 7.37923V17.387C18.0226 17.9397 18.4707 18.3878 19.0234 18.3878C19.5761 18.3878 20.0242 17.9397 20.0242 17.387V7.37923C20.0242 6.82651 19.5761 6.37845 19.0234 6.37845ZM15.7891 13.0238L11.8042 18.0095C11.4504 18.4341 10.8193 18.4915 10.3947 18.1377C9.97009 17.7838 9.91272 17.1528 10.2666 16.7282L12.8836 13.3839H5.0125C4.45978 13.3839 4.01172 12.9359 4.01172 12.3831C4.01172 11.8304 4.45978 11.3824 5.0125 11.3824H12.8836L10.2666 8.03814C9.91272 7.61353 9.97009 6.98247 10.3947 6.62864C10.8193 6.2748 11.4504 6.33216 11.8042 6.75677L15.7891 11.7425C16.0984 12.1136 16.0984 12.6527 15.7891 13.0238Z" fill="white"/>
</svg>
