<svg width="24" height="24" viewBox="0 0 24 24" fill="none" xmlns="http://www.w3.org/2000/svg">
<g clip-path="url(#clip0_1184_20868)">
<path d="M22.4999 21H1.50001C0.671547 21 0 20.5523 0 20C0 19.4477 0.671547 19 1.50001 19H22.5C23.3284 19 24 19.4477 24 20C23.9999 20.5523 23.3284 21 22.4999 21Z" fill="#5A606C"/>
<path d="M22.4999 13H1.50001C0.671547 13 0 12.5523 0 12C0 11.4477 0.671547 11 1.50001 11H22.5C23.3284 11 24 11.4477 24 12C24 12.5523 23.3284 13 22.4999 13Z" fill="#5A606C"/>
<path d="M22.4999 6H1.50001C0.671547 6 0 5.5523 0 5C0 4.4477 0.671547 4 1.50001 4H22.5C23.3284 4 24 4.4477 24 5C24 5.5523 23.3284 6 22.4999 6Z" fill="#5A606C"/>
</g>
<defs>
<clipPath id="clip0_1184_20868">
<rect width="24" height="24" fill="white"/>
</clipPath>
</defs>
</svg>
