<svg width="24" height="24" viewBox="0 0 24 24" fill="none" xmlns="http://www.w3.org/2000/svg">
<path fill-rule="evenodd" clip-rule="evenodd" d="M4 5C2.89543 5 2 5.89543 2 7V17C2 18.1046 2.89543 19 4 19H20C21.1046 19 22 18.1046 22 17V7C22 5.89543 21.1046 5 20 5H4ZM5.46334 7.41029C5.13763 7.15438 4.66614 7.21096 4.41023 7.53667C4.15432 7.86237 4.2109 8.33386 4.5366 8.58977L10.301 13.1189C11.2981 13.9024 12.7018 13.9024 13.699 13.1189L19.4633 8.58977C19.789 8.33386 19.8456 7.86237 19.5897 7.53667C19.3338 7.21096 18.8623 7.15438 18.5366 7.41029L12.7722 11.9394C12.319 12.2956 11.681 12.2956 11.2277 11.9394L5.46334 7.41029Z" fill="white"/>
</svg>
