<svg width="24" height="24" viewBox="0 0 24 24" fill="none" xmlns="http://www.w3.org/2000/svg">
<path d="M4 12C4 10.8954 4.89543 10 6 10C7.10457 10 8 10.8954 8 12V18C8 19.1046 7.10457 20 6 20C4.89543 20 4 19.1046 4 18V12Z" fill="white"/>
<path d="M10 6C10 4.89543 10.8954 4 12 4C13.1046 4 14 4.89543 14 6V18C14 19.1046 13.1046 20 12 20C10.8954 20 10 19.1046 10 18V6Z" fill="white"/>
<path d="M16 9C16 7.89543 16.8954 7 18 7C19.1046 7 20 7.89543 20 9V18C20 19.1046 19.1046 20 18 20C16.8954 20 16 19.1046 16 18V9Z" fill="white"/>
</svg>
