<svg width="24" height="24" viewBox="0 0 24 24" fill="none" xmlns="http://www.w3.org/2000/svg">
<path fill-rule="evenodd" clip-rule="evenodd" d="M11 5.5C10.4477 5.5 10 5.94772 10 6.5C10 7.05228 10.4477 7.5 11 7.5H11.5C11.2239 7.5 11 7.72386 11 8C11 8.0208 11.0013 8.0413 11.0037 8.06143C7.38259 8.51125 4.51225 11.3811 4.06165 15.002C3.99344 15.55 4.44772 16 5 16H19C19.5523 16 20.0066 15.55 19.9384 15.002C19.4878 11.3811 16.6174 8.51125 12.9963 8.06143C12.9987 8.0413 13 8.0208 13 8C13 7.72386 12.7761 7.5 12.5 7.5H13C13.5523 7.5 14 7.05228 14 6.5C14 5.94772 13.5523 5.5 13 5.5H11ZM4 17C3.44772 17 3 17.4477 3 18C3 18.5523 3.44772 19 4 19H20C20.5523 19 21 18.5523 21 18C21 17.4477 20.5523 17 20 17H4Z" fill="white"/>
</svg>
