<svg width="24" height="24" viewBox="0 0 24 24" fill="none" xmlns="http://www.w3.org/2000/svg">
<path fill-rule="evenodd" clip-rule="evenodd" d="M20 11C21.1046 11 22 11.8954 22 13V17.5C22 17.7761 21.7761 18 21.5 18H18.5C18.2239 18 18 17.7761 18 17.5V17C18 16.4477 17.5523 16 17 16H6C5.44772 16 5 16.4477 5 17V17.5C5 17.7761 4.77614 18 4.5 18H2.5C2.22386 18 2 17.7761 2 17.5V13C2 11.8954 2.89543 11 4 11H20ZM20 6C20.5523 6 21 6.44772 21 7L21.0003 10.2678C20.7551 10.1258 20.477 10.0345 20.1802 10.008L20 10H18.9994L19 9C19 8.48716 18.614 8.06449 18.1166 8.00673L18 8H14C13.4872 8 13.0645 8.38604 13.0067 8.88338L13 9L12.9994 10H10.9994L11 9C11 8.48716 10.614 8.06449 10.1166 8.00673L10 8H6C5.48716 8 5.06449 8.38604 5.00673 8.88338L5 9L4.9994 10H4C3.63547 10 3.29371 10.0975 2.9994 10.2679L3 7C3 6.44772 3.44772 6 4 6H20Z" fill="white"/>
</svg>
