<svg width="24" height="24" viewBox="0 0 24 24" fill="none" xmlns="http://www.w3.org/2000/svg">
<path d="M19.2233 12C19.2233 11.77 19.2133 11.55 19.1933 11.32L21.0533 9.91C21.4533 9.61 21.5633 9.05 21.3133 8.61L19.4433 5.38C19.1933 4.94 18.6533 4.76 18.1933 4.96L16.0433 5.87C15.6733 5.61 15.2833 5.38 14.8733 5.19L14.5833 2.88C14.5233 2.38 14.0933 2 13.5933 2H9.8633C9.3533 2 8.9233 2.38 8.8633 2.88L8.5733 5.19C8.1633 5.38 7.7733 5.61 7.4033 5.87L5.2533 4.96C4.7933 4.76 4.2533 4.94 4.0033 5.38L2.1333 8.62C1.8833 9.06 1.9933 9.61 2.3933 9.92L4.2533 11.33C4.2333 11.55 4.2233 11.77 4.2233 12C4.2233 12.23 4.2333 12.45 4.2533 12.68L2.3933 14.09C1.9933 14.39 1.8833 14.95 2.1333 15.39L4.0033 18.62C4.2533 19.06 4.7933 19.24 5.2533 19.04L7.4033 18.13C7.7733 18.39 8.1633 18.62 8.5733 18.81L8.8633 21.12C8.9233 21.62 9.3533 22 9.8533 22H13.5833C14.0833 22 14.5133 21.62 14.5733 21.12L14.8633 18.81C15.2733 18.62 15.6633 18.39 16.0333 18.13L18.1833 19.04C18.6433 19.24 19.1833 19.06 19.4333 18.62L21.3033 15.39C21.5533 14.95 21.4433 14.4 21.0433 14.09L19.1833 12.68C19.2133 12.45 19.2233 12.23 19.2233 12ZM11.7633 15.5C9.8333 15.5 8.2633 13.93 8.2633 12C8.2633 10.07 9.8333 8.5 11.7633 8.5C13.6933 8.5 15.2633 10.07 15.2633 12C15.2633 13.93 13.6933 15.5 11.7633 15.5Z" fill="white"/>
</svg>
