<svg width="19" height="19" viewBox="0 0 19 19" fill="none" xmlns="http://www.w3.org/2000/svg">
<path fill-rule="evenodd" clip-rule="evenodd" d="M12.3173 10.2862C13.9047 7.77418 13.6038 4.41138 11.4143 2.22192C8.8759 -0.316487 4.76033 -0.316486 2.22192 2.22192C-0.316487 4.76033 -0.316487 8.8759 2.22192 11.4143C4.41138 13.6038 7.77418 13.9047 10.2862 12.3173L16.3312 17.8127C16.7455 18.1893 17.3824 18.1741 17.7783 17.7783C18.1741 17.3824 18.1893 16.7455 17.8127 16.3312L12.3173 10.2862ZM10.0001 3.63613C11.7575 5.39349 11.7575 8.24274 10.0001 10.0001C8.24274 11.7575 5.39349 11.7575 3.63614 10.0001C1.87878 8.24274 1.87878 5.39349 3.63613 3.63613C5.39349 1.87877 8.24274 1.87877 10.0001 3.63613Z" fill="#5A606C"/>
</svg>
