<svg width="55" height="55" viewBox="0 0 55 55" fill="none" xmlns="http://www.w3.org/2000/svg">
<g clip-path="url(#clip0_209_2)">
<path d="M44.8852 12.23C44.0432 9.631 42.8912 7.774 40.4302 7.774H20.6182V3.523C20.6182 1.577 18.9342 0 16.8582 0C14.7812 0 13.0972 1.577 13.0972 3.523C13.0972 4.777 13.0972 6.795 13.0972 8.078C11.5842 8.719 10.6902 10.341 10.1252 12.23C10.1252 12.23 8.49219 23.91 8.49219 31.338C8.49219 38.765 10.1252 50.443 10.1252 50.443C10.8862 52.935 12.1212 54.9 14.5812 54.9H40.4302C42.8912 54.9 44.1062 52.962 44.8852 50.443C44.8852 50.443 46.4792 38.171 46.4062 31.338C46.3642 23.687 44.8852 12.23 44.8852 12.23ZM40.6142 15.055V34.505C40.6142 35.479 39.8252 36.266 38.8532 36.266H15.9702C14.9972 36.266 14.2092 35.479 14.2092 34.505V15.055C14.2092 14.082 14.9972 13.295 15.9702 13.295H38.8532C39.8252 13.296 40.6142 14.083 40.6142 15.055ZM21.4532 46.357H15.0552C14.1332 46.357 13.3862 45.609 13.3862 44.687C13.3862 43.765 14.1332 43.019 15.0552 43.019H21.4532C22.3742 43.019 23.1222 43.765 23.1222 44.687C23.1212 45.609 22.3732 46.357 21.4532 46.357ZM27.4502 47.654C25.8112 47.654 24.4832 46.328 24.4832 44.687C24.4832 43.047 25.8112 41.72 27.4502 41.72C29.0902 41.72 30.4172 43.047 30.4172 44.687C30.4162 46.328 29.0892 47.654 27.4502 47.654ZM40.2272 46.357H33.8302C32.9092 46.357 32.1612 45.609 32.1612 44.687C32.1612 43.765 32.9092 43.019 33.8302 43.019H40.2272C41.1492 43.019 41.8972 43.765 41.8972 44.687C41.8972 45.609 41.1482 46.357 40.2272 46.357Z" fill="white"/>
</g>
<defs>
<clipPath id="clip0_209_2">
<rect width="54.9" height="54.9" fill="white"/>
</clipPath>
</defs>
</svg>
