<svg width="18" height="18" viewBox="0 0 18 18" fill="none" xmlns="http://www.w3.org/2000/svg">
<path fill-rule="evenodd" clip-rule="evenodd" d="M0 8.93021C0 13.7646 3.98914 17.6836 8.91 17.6836H9.09C14.0109 17.6836 18 13.7646 18 8.93021V8.75338C18 3.91902 14.0109 0 9.09 0H8.91C3.98914 0 0 3.91902 0 8.75338V8.93021ZM10.1517 4.23785C10.1517 4.93537 9.55345 5.46588 8.80566 5.46588C8.0472 5.46588 7.47033 4.93537 7.47033 4.23785C7.48102 3.55998 8.0472 3 8.80566 3C9.55345 3 10.1517 3.55016 10.1517 4.23785ZM8.80566 7C8.25338 7 7.80566 7.44772 7.80566 8V14C7.80566 14.5523 8.25338 15 8.80566 15C9.35795 15 9.80566 14.5523 9.80566 14V8C9.80566 7.44772 9.35795 7 8.80566 7Z" fill="#1976D2"/>
</svg>
