<svg width="24" height="24" viewBox="0 0 24 24" fill="none" xmlns="http://www.w3.org/2000/svg">
<path fill-rule="evenodd" clip-rule="evenodd" d="M21 11.91C21 6.98914 17.0109 3 12.09 3H11.91C6.98914 3 3 6.98914 3 11.91V12.09C3 17.0109 6.98914 21 11.91 21H12.09C17.0109 21 21 17.0109 21 12.09V11.91ZM10.8483 16.6863C10.8483 15.9763 11.4466 15.4363 12.1943 15.4363C12.9528 15.4363 13.5297 15.9763 13.5297 16.6863C13.519 17.3763 12.9528 17.9463 12.1943 17.9463C11.4466 17.9463 10.8483 17.3863 10.8483 16.6863ZM12.1943 13.8748C12.7466 13.8748 13.1943 13.427 13.1943 12.8748L13.1943 6.73161C13.1943 6.17933 12.7466 5.73161 12.1943 5.73161C11.6421 5.73161 11.1943 6.17933 11.1943 6.73161V12.8748C11.1943 13.427 11.6421 13.8748 12.1943 13.8748Z" fill="#EE2222"/>
</svg>
