<svg width="24" height="24" viewBox="0 0 24 24" fill="none" xmlns="http://www.w3.org/2000/svg">
<path fill-rule="evenodd" clip-rule="evenodd" d="M12 2C10.6938 2 9.58254 2.83481 9.17071 4H7C4.79086 4 3 5.79086 3 8V18C3 20.2091 4.79086 22 7 22H17C19.2091 22 21 20.2091 21 18V8C21 5.79086 19.2091 4 17 4H14.8293C14.4175 2.83481 13.3062 2 12 2ZM13 5C13 5.55228 12.5523 6 12 6C11.4477 6 11 5.55228 11 5C11 4.44772 11.4477 4 12 4C12.5523 4 13 4.44772 13 5ZM8 10C8.55228 10 9 9.55228 9 9C9 8.44772 8.55228 8 8 8C7.44772 8 7 8.44772 7 9C7 9.55228 7.44772 10 8 10ZM11 8C10.4477 8 10 8.44772 10 9C10 9.55228 10.4477 10 11 10H16C16.5523 10 17 9.55228 17 9C17 8.44772 16.5523 8 16 8H11ZM8 14C8.55228 14 9 13.5523 9 13C9 12.4477 8.55228 12 8 12C7.44772 12 7 12.4477 7 13C7 13.5523 7.44772 14 8 14ZM11 12C10.4477 12 10 12.4477 10 13C10 13.5523 10.4477 14 11 14H16C16.5523 14 17 13.5523 17 13C17 12.4477 16.5523 12 16 12H11ZM9 17C9 17.5523 8.55228 18 8 18C7.44772 18 7 17.5523 7 17C7 16.4477 7.44772 16 8 16C8.55228 16 9 16.4477 9 17ZM10 17C10 16.4477 10.4477 16 11 16H13C13.5523 16 14 16.4477 14 17C14 17.5523 13.5523 18 13 18H11C10.4477 18 10 17.5523 10 17Z" fill="#5A606C"/>
</svg>
